<svg width="28" height="28" viewBox="0 0 28 28" fill="none" xmlns="http://www.w3.org/2000/svg">
<g id="icon">
<path id="Vector" d="M17.1426 14.0005C17.1426 14.2278 17.0523 14.4458 16.8915 14.6065C16.7308 14.7673 16.5128 14.8576 16.2854 14.8576H14.8569V16.2862C14.8569 16.5135 14.7666 16.7315 14.6058 16.8923C14.4451 17.053 14.227 17.1433 13.9997 17.1433C13.7724 17.1433 13.5544 17.053 13.3936 16.8923C13.2329 16.7315 13.1426 16.5135 13.1426 16.2862V14.8576H11.714C11.4867 14.8576 11.2687 14.7673 11.1079 14.6065C10.9472 14.4458 10.8569 14.2278 10.8569 14.0005C10.8569 13.7731 10.9472 13.5551 11.1079 13.3944C11.2687 13.2336 11.4867 13.1433 11.714 13.1433H13.1426V11.7147C13.1426 11.4874 13.2329 11.2694 13.3936 11.1086C13.5544 10.9479 13.7724 10.8576 13.9997 10.8576C14.227 10.8576 14.4451 10.9479 14.6058 11.1086C14.7666 11.2694 14.8569 11.4874 14.8569 11.7147V13.1433H16.2854C16.5128 13.1433 16.7308 13.2336 16.8915 13.3944C17.0523 13.5551 17.1426 13.7731 17.1426 14.0005Z" fill="white"/>
<path id="Vector_2" fill-rule="evenodd" clip-rule="evenodd" d="M13.9994 26.2861C20.7846 26.2861 26.2852 20.7856 26.2852 14.0004C26.2852 7.21528 20.7846 1.71471 13.9994 1.71471C7.2143 1.71471 1.71373 7.21528 1.71373 14.0004C1.71373 20.7856 7.2143 26.2861 13.9994 26.2861ZM14.8566 24.5376C17.356 24.3343 19.7018 23.2492 21.4751 21.476C23.2483 19.7028 24.3334 17.357 24.5366 14.8576H21.9994C21.7721 14.8576 21.5541 14.7673 21.3934 14.6065C21.2326 14.4458 21.1423 14.2277 21.1423 14.0004C21.1423 13.7731 21.2326 13.5551 21.3934 13.3943C21.5541 13.2336 21.7721 13.1433 21.9994 13.1433H24.5366C24.3334 10.6438 23.2483 8.29802 21.4751 6.52481C19.7018 4.7516 17.356 3.66649 14.8566 3.46328V6.00042C14.8566 6.22775 14.7663 6.44577 14.6055 6.60651C14.4448 6.76726 14.2268 6.85756 13.9994 6.85756C13.7721 6.85756 13.5541 6.76726 13.3934 6.60651C13.2326 6.44577 13.1423 6.22775 13.1423 6.00042V3.46328C10.6429 3.66649 8.29704 4.7516 6.52383 6.52481C4.75063 8.29802 3.66551 10.6438 3.4623 13.1433H5.99944C6.22677 13.1433 6.44479 13.2336 6.60554 13.3943C6.76628 13.5551 6.85659 13.7731 6.85659 14.0004C6.85659 14.2277 6.76628 14.4458 6.60554 14.6065C6.44479 14.7673 6.22677 14.8576 5.99944 14.8576H3.4623C3.66551 17.357 4.75063 19.7028 6.52383 21.476C8.29704 23.2492 10.6429 24.3343 13.1423 24.5376V22.0004C13.1423 21.7731 13.2326 21.5551 13.3934 21.3943C13.5541 21.2336 13.7721 21.1433 13.9994 21.1433C14.2268 21.1433 14.4448 21.2336 14.6055 21.3943C14.7663 21.5551 14.8566 21.7731 14.8566 22.0004V24.5376Z" fill="white"/>
</g>
</svg>
