<svg width="44" height="44" viewBox="0 0 44 44" fill="none" xmlns="http://www.w3.org/2000/svg">
<g filter="url(#filter0_d_4191_6688)">
<circle cx="20" cy="18" r="16" transform="rotate(180 20 18)" fill="#262626"/>
</g>
<path d="M23.1426 18.0005C23.1426 18.2278 23.0523 18.4458 22.8915 18.6065C22.7308 18.7673 22.5128 18.8576 22.2854 18.8576H20.8569V20.2862C20.8569 20.5135 20.7666 20.7315 20.6058 20.8923C20.4451 21.053 20.227 21.1433 19.9997 21.1433C19.7724 21.1433 19.5544 21.053 19.3936 20.8923C19.2329 20.7315 19.1426 20.5135 19.1426 20.2862V18.8576H17.714C17.4867 18.8576 17.2687 18.7673 17.1079 18.6065C16.9472 18.4458 16.8569 18.2278 16.8569 18.0005C16.8569 17.7731 16.9472 17.5551 17.1079 17.3944C17.2687 17.2336 17.4867 17.1433 17.714 17.1433H19.1426V15.7147C19.1426 15.4874 19.2329 15.2694 19.3936 15.1086C19.5544 14.9479 19.7724 14.8576 19.9997 14.8576C20.227 14.8576 20.4451 14.9479 20.6058 15.1086C20.7666 15.2694 20.8569 15.4874 20.8569 15.7147V17.1433H22.2854C22.5128 17.1433 22.7308 17.2336 22.8915 17.3944C23.0523 17.5551 23.1426 17.7731 23.1426 18.0005Z" fill="white"/>
<path fill-rule="evenodd" clip-rule="evenodd" d="M19.9994 30.2861C26.7846 30.2861 32.2852 24.7856 32.2852 18.0004C32.2852 11.2153 26.7846 5.71471 19.9994 5.71471C13.2143 5.71471 7.71373 11.2153 7.71373 18.0004C7.71373 24.7856 13.2143 30.2861 19.9994 30.2861ZM20.8566 28.5376C23.356 28.3343 25.7018 27.2492 27.4751 25.476C29.2483 23.7028 30.3334 21.357 30.5366 18.8576H27.9994C27.7721 18.8576 27.5541 18.7673 27.3934 18.6065C27.2326 18.4458 27.1423 18.2277 27.1423 18.0004C27.1423 17.7731 27.2326 17.5551 27.3934 17.3943C27.5541 17.2336 27.7721 17.1433 27.9994 17.1433H30.5366C30.3334 14.6438 29.2483 12.298 27.4751 10.5248C25.7018 8.7516 23.356 7.66649 20.8566 7.46328V10.0004C20.8566 10.2277 20.7663 10.4458 20.6055 10.6065C20.4448 10.7673 20.2268 10.8576 19.9994 10.8576C19.7721 10.8576 19.5541 10.7673 19.3934 10.6065C19.2326 10.4458 19.1423 10.2277 19.1423 10.0004V7.46328C16.6429 7.66649 14.297 8.7516 12.5238 10.5248C10.7506 12.298 9.66551 14.6438 9.4623 17.1433H11.9994C12.2268 17.1433 12.4448 17.2336 12.6055 17.3943C12.7663 17.5551 12.8566 17.7731 12.8566 18.0004C12.8566 18.2277 12.7663 18.4458 12.6055 18.6065C12.4448 18.7673 12.2268 18.8576 11.9994 18.8576H9.4623C9.66551 21.357 10.7506 23.7028 12.5238 25.476C14.297 27.2492 16.6429 28.3343 19.1423 28.5376V26.0004C19.1423 25.7731 19.2326 25.5551 19.3934 25.3943C19.5541 25.2336 19.7721 25.1433 19.9994 25.1433C20.2268 25.1433 20.4448 25.2336 20.6055 25.3943C20.7663 25.5551 20.8566 25.7731 20.8566 26.0004V28.5376Z" fill="white"/>
<defs>
<filter id="filter0_d_4191_6688" x="0.8" y="0.933333" width="42.6667" height="42.6667" filterUnits="userSpaceOnUse" color-interpolation-filters="sRGB">
<feFlood flood-opacity="0" result="BackgroundImageFix"/>
<feColorMatrix in="SourceAlpha" type="matrix" values="0 0 0 0 0 0 0 0 0 0 0 0 0 0 0 0 0 0 127 0" result="hardAlpha"/>
<feOffset dx="2.13333" dy="4.26667"/>
<feGaussianBlur stdDeviation="2.66667"/>
<feComposite in2="hardAlpha" operator="out"/>
<feColorMatrix type="matrix" values="0 0 0 0 0 0 0 0 0 0 0 0 0 0 0 0 0 0 0.25 0"/>
<feBlend mode="normal" in2="BackgroundImageFix" result="effect1_dropShadow_4191_6688"/>
<feBlend mode="normal" in="SourceGraphic" in2="effect1_dropShadow_4191_6688" result="shape"/>
</filter>
</defs>
</svg>
